<svg width="36" height="46" viewBox="0 0 36 46" fill="none" xmlns="http://www.w3.org/2000/svg">
<ellipse cx="18.0001" cy="43.4" rx="8.4" ry="2.4" fill="black" fill-opacity="0.1"/>
<path fill-rule="evenodd" clip-rule="evenodd" d="M21.296 35.6989C29.6631 34.1506 36 26.8153 36 18C36 8.05887 27.9411 0 18 0C8.05887 0 0 8.05887 0 18C0 26.8137 6.33463 34.1479 14.6994 35.6981L17.9979 45.5999L21.296 35.6989Z" fill="#DC5D5C"/>
<path fill-rule="evenodd" clip-rule="evenodd" d="M12.8788 29.9999C12.8788 29.9999 7.956 13.2377 21.4128 5.99988L21.5864 6.34354C22.6349 8.45458 23.3563 10.7971 23.6271 13.1396C23.8076 14.7667 23.752 16.4359 23.3084 18.0209C22.7591 19.9847 21.0858 20.9245 19.3708 21.8082C18.8716 22.0607 18.3508 22.2711 17.8433 22.5095C16.8997 22.9514 15.9408 23.5054 15.545 24.5224C15.545 24.5224 15.4409 22.8882 18.2599 19.3675C18.2599 19.3675 20.2387 17.3617 20.1623 13.5043C20.1623 13.5043 13.6981 15.3769 12.8788 29.9999Z" fill="#FEFEFE"/>
</svg>
