<svg width="36" height="46" viewBox="0 0 36 46" fill="none" xmlns="http://www.w3.org/2000/svg">
<ellipse cx="18.0001" cy="43.4" rx="8.4" ry="2.4" fill="black" fill-opacity="0.1"/>
<path fill-rule="evenodd" clip-rule="evenodd" d="M21.296 35.6989C29.6631 34.1506 36 26.8153 36 18C36 8.05887 27.9411 0 18 0C8.05887 0 0 8.05887 0 18C0 26.8137 6.33463 34.1479 14.6994 35.6981L17.9979 45.5999L21.296 35.6989Z" fill="#288941"/>
<path fill-rule="evenodd" clip-rule="evenodd" d="M8.21856 9.6001C19.4836 13.8973 17.2836 27.5384 17.2836 27.5384C15.1654 16.1396 9.92665 15.306 9.92665 15.306C10.2465 18.3172 11.993 19.6936 11.993 19.6936C14.5519 22.1879 14.6344 23.4803 14.6344 23.4803C14.2192 22.7178 13.4125 22.3753 12.6327 22.1169C12.4494 22.0551 12.2649 21.9983 12.0807 21.9415C11.8407 21.8676 11.6013 21.7939 11.366 21.7098C9.93944 21.1734 8.54483 20.6048 7.92365 19.125C7.4253 17.936 7.22058 16.6436 7.20139 15.3577C7.17516 13.516 7.50846 11.6291 8.11621 9.88442L8.21856 9.6001ZM27.7878 9.6001C16.5228 13.8973 18.7228 27.5384 18.7228 27.5384C20.8339 16.1396 26.0797 15.306 26.0797 15.306C25.7535 18.3172 24.0134 19.6936 24.0134 19.6936C21.4545 22.1879 21.3713 23.4803 21.3713 23.4803C21.7801 22.7178 22.5868 22.3753 23.3737 22.1169C23.5515 22.057 23.7305 22.0017 23.9086 21.9466C24.1535 21.871 24.3969 21.7958 24.6339 21.7098C26.0669 21.1734 27.4551 20.6048 28.0821 19.125C28.5811 17.936 28.7858 16.6436 28.7986 15.3577C28.8242 13.516 28.4915 11.6291 27.8902 9.88442L27.7878 9.6001Z" fill="#FEFEFE"/>
</svg>
